<svg width="131" height="143" viewBox="0 0 131 143" fill="none" xmlns="http://www.w3.org/2000/svg">
<g filter="url(#filter0_d_37_196)">
<path d="M68.886 45.5888L68.886 45.5888C70.49 43.3173 73.1168 41.6372 76.7689 40.627V41.0159C76.7689 42.4002 76.4314 44.0164 75.7467 45.8219C75.0412 47.5392 73.9354 49.1636 72.4556 50.6372C71.0609 51.9461 69.8073 52.7758 68.7387 53.1449C68.384 53.2507 67.8834 53.3582 67.2634 53.4576C66.8981 53.5145 66.532 53.5663 66.1653 53.613C66.3699 50.5432 67.2869 47.8527 68.886 45.5888Z" stroke="#007FFF"/>
<path d="M66.3027 59.223C61.776 59.223 58.6324 55.2188 54.1667 55.2188C49.701 55.2188 40.5 59.3235 40.5 73.4958C40.5 87.6682 48.6699 96.7991 49.5837 97.8653C50.4976 98.9314 52.6116 101.673 55.8847 101.673C59.1594 101.673 62.7447 99.0685 66.3027 99.0685C69.8637 99.0685 74.3446 101.673 77.2689 101.673C80.1932 101.673 81.3965 100.48 83.3872 98.4227C85.3779 96.3666 89.1749 90.0914 90.5 86.3233C88.3159 85.0241 82.5281 81.4951 82.5281 73.4958C82.5281 68.165 84.4762 63.7343 88.3738 60.2069C85.8165 56.882 82.851 55.2188 79.4774 55.2188C74.4146 55.2188 70.8293 59.223 66.3027 59.223Z" stroke="#007FFF" stroke-linejoin="round"/>
</g>
<defs>
<filter id="filter0_d_37_196" x="0" y="0" width="131" height="142.173" filterUnits="userSpaceOnUse" color-interpolation-filters="sRGB">
<feFlood flood-opacity="0" result="BackgroundImageFix"/>
<feColorMatrix in="SourceAlpha" type="matrix" values="0 0 0 0 0 0 0 0 0 0 0 0 0 0 0 0 0 0 127 0" result="hardAlpha"/>
<feOffset/>
<feGaussianBlur stdDeviation="20"/>
<feComposite in2="hardAlpha" operator="out"/>
<feColorMatrix type="matrix" values="0 0 0 0 0 0 0 0 0 0.498039 0 0 0 0 1 0 0 0 1 0"/>
<feBlend mode="normal" in2="BackgroundImageFix" result="effect1_dropShadow_37_196"/>
<feBlend mode="normal" in="SourceGraphic" in2="effect1_dropShadow_37_196" result="shape"/>
</filter>
</defs>
</svg>
