<svg width="91" height="77" viewBox="0 0 91 77" fill="none" xmlns="http://www.w3.org/2000/svg">
<g filter="url(#filter0_d_70_104)">
<path d="M68.3103 53.308C72.5691 53.308 76.0299 50.424 76.0299 46.875C76.0299 43.326 72.5691 40.442 68.3103 40.442C64.0515 40.442 60.5907 43.326 60.5907 46.875C60.5907 50.424 64.0599 53.308 68.3103 53.308ZM65.7399 44.733H70.8891V49.024H65.7399V44.733ZM63.1695 21.15V4H14.29C11.434 4 8.85519 4.973 6.99039 6.548L6.7132 5.183L6.2848 7.262C4.8736 8.725 4 10.559 4 12.575V16.866C4 17.223 4.0756 17.566 4.126 17.916C4.0588 18.273 4 18.637 4 19.008V64.025C4 68.757 8.61159 72.6 14.29 72.6H76.0299C81.6999 72.6 86.3199 68.757 86.3199 64.025V21.15H63.1695ZM9.14919 12.575C9.14919 10.209 11.4592 8.284 14.2984 8.284H58.0287V21.15H14.29C13.954 21.15 13.6264 21.115 13.3156 21.066C13.2064 21.045 13.0972 21.017 12.9796 20.989C12.778 20.947 12.5848 20.898 12.4 20.842C12.2656 20.8 12.148 20.744 12.022 20.695C11.8708 20.632 11.7196 20.569 11.5768 20.492C11.4424 20.422 11.308 20.345 11.182 20.261C11.0728 20.191 10.9636 20.121 10.8628 20.037C10.72 19.932 10.594 19.82 10.468 19.701C10.4008 19.638 10.342 19.575 10.2748 19.505C10.132 19.358 10.006 19.204 9.88839 19.043C9.86319 19.008 9.84639 18.973 9.82119 18.945C9.54399 18.525 9.34239 18.07 9.24159 17.58L9.22479 17.489C9.19119 17.286 9.14919 17.083 9.14919 16.873V12.575ZM81.1791 55.45H60.5991C57.7599 55.45 55.4499 53.525 55.4499 51.159V42.591C55.4499 40.225 57.7515 38.307 60.5991 38.307H81.1791V55.45ZM81.1791 34.009H60.5991C54.9291 34.009 50.3091 37.852 50.3091 42.584V51.159C50.3091 55.891 54.9291 59.734 60.5991 59.734H81.1791V64.025C81.1791 66.391 78.8775 68.316 76.0299 68.316H14.29C11.4508 68.316 9.14079 66.391 9.14079 64.025V24.286C9.50199 24.461 9.87159 24.615 10.258 24.748C10.2664 24.755 10.2748 24.762 10.2916 24.762C10.846 24.958 11.4172 25.098 12.0136 25.21C12.1564 25.238 12.2908 25.259 12.4336 25.28C13.0384 25.371 13.6516 25.434 14.2816 25.434H63.1611H81.1707V34.009H81.1791Z" fill="#007FFF"/>
</g>
<defs>
<filter id="filter0_d_70_104" x="0" y="0" width="90.3199" height="76.6" filterUnits="userSpaceOnUse" color-interpolation-filters="sRGB">
<feFlood flood-opacity="0" result="BackgroundImageFix"/>
<feColorMatrix in="SourceAlpha" type="matrix" values="0 0 0 0 0 0 0 0 0 0 0 0 0 0 0 0 0 0 127 0" result="hardAlpha"/>
<feOffset/>
<feGaussianBlur stdDeviation="2"/>
<feComposite in2="hardAlpha" operator="out"/>
<feColorMatrix type="matrix" values="0 0 0 0 0 0 0 0 0 0.498039 0 0 0 0 1 0 0 0 1 0"/>
<feBlend mode="normal" in2="BackgroundImageFix" result="effect1_dropShadow_70_104"/>
<feBlend mode="normal" in="SourceGraphic" in2="effect1_dropShadow_70_104" result="shape"/>
</filter>
</defs>
</svg>
