<svg width="69" height="70" viewBox="0 0 69 70" fill="none" xmlns="http://www.w3.org/2000/svg">
<g filter="url(#filter0_d_70_120)">
<path d="M34.2 5.83331C18.4851 5.83331 5.70001 18.9175 5.70001 35V47.0837C5.70001 50.0704 8.25646 52.5 11.4 52.5H14.25C15.0059 52.5 15.7308 52.1927 16.2653 51.6457C16.7997 51.0987 17.1 50.3569 17.1 49.5833V34.5829C17.1 33.8094 16.7997 33.0675 16.2653 32.5205C15.7308 31.9735 15.0059 31.6662 14.25 31.6662H11.6622C13.2468 20.3787 22.7373 11.6666 34.2 11.6666C45.6627 11.6666 55.1532 20.3787 56.7378 31.6662H54.15C53.3941 31.6662 52.6692 31.9735 52.1347 32.5205C51.6002 33.0675 51.3 33.8094 51.3 34.5829V52.5C51.3 55.7171 48.7435 58.3333 45.6 58.3333H39.9V55.4167H28.5V64.1667H45.6C51.8871 64.1667 57 58.9342 57 52.5C60.1435 52.5 62.7 50.0704 62.7 47.0837V35C62.7 18.9175 49.9149 5.83331 34.2 5.83331Z" fill="#007FFF"/>
</g>
<defs>
<filter id="filter0_d_70_120" x="1.70001" y="1.83331" width="64.9999" height="66.3333" filterUnits="userSpaceOnUse" color-interpolation-filters="sRGB">
<feFlood flood-opacity="0" result="BackgroundImageFix"/>
<feColorMatrix in="SourceAlpha" type="matrix" values="0 0 0 0 0 0 0 0 0 0 0 0 0 0 0 0 0 0 127 0" result="hardAlpha"/>
<feOffset/>
<feGaussianBlur stdDeviation="2"/>
<feComposite in2="hardAlpha" operator="out"/>
<feColorMatrix type="matrix" values="0 0 0 0 0 0 0 0 0 0.498039 0 0 0 0 1 0 0 0 1 0"/>
<feBlend mode="normal" in2="BackgroundImageFix" result="effect1_dropShadow_70_120"/>
<feBlend mode="normal" in="SourceGraphic" in2="effect1_dropShadow_70_120" result="shape"/>
</filter>
</defs>
</svg>
