<svg width="300" height="451" viewBox="0 0 300 451" fill="none" xmlns="http://www.w3.org/2000/svg">
<path d="M299.999 316.352L299.895 364.11C299.886 368.234 297.175 372.35 291.763 375.493L170.204 446.138C159.308 452.467 141.585 452.472 130.619 446.138L8.26472 375.497C2.74507 372.31 -0.00973341 368.131 2.58385e-05 363.952L0.103193 316.219C0.103193 320.383 130.718 398.38 130.718 398.38C141.688 404.71 159.411 404.71 170.307 398.375C170.307 398.375 299.989 320.472 299.999 316.352Z" fill="#2E4277"/>
<path d="M119.908 403.622L18.5921 345.124C15.9731 343.612 12.6992 345.502 12.6992 348.526V364.329C12.6992 367.136 14.1968 369.73 16.6278 371.133L117.944 429.627C120.563 431.139 123.837 429.249 123.837 426.225V410.426C123.837 407.619 122.339 405.025 119.908 403.622Z" fill="#384E85"/>
<path d="M291.737 304.806C302.704 311.138 302.762 321.402 291.866 327.734L170.306 398.377C159.41 404.709 141.687 404.711 130.72 398.379L8.36461 327.737C-2.60266 321.405 -2.65731 311.139 8.23867 304.807L129.799 234.164C140.695 227.832 158.414 227.832 169.381 234.164L291.737 304.806Z" fill="#384E85"/>
<path d="M244.194 311.2C249.045 314.001 249.067 318.539 244.248 321.34L159.111 370.816C154.291 373.617 146.455 373.619 141.604 370.818L55.9107 321.343C51.0594 318.542 51.0338 314.001 55.8536 311.2L140.99 261.725C145.81 258.924 153.649 258.924 158.5 261.724L244.194 311.2Z" fill="#2E4277"/>
<path d="M25.1918 358.491C27.5903 359.876 29.5247 363.226 29.5169 365.982C29.5091 368.738 27.562 369.852 25.1635 368.467C22.765 367.082 20.8274 363.726 20.8352 360.97C20.843 358.214 22.7933 357.106 25.1918 358.491Z" fill="#E52C42"/>
<path d="M39.1751 366.564C41.5705 367.947 43.508 371.3 43.5002 374.056C43.4924 376.812 41.5423 377.923 39.1468 376.54C36.7483 375.155 34.8107 371.799 34.8185 369.043C34.8265 366.287 36.7767 365.179 39.1751 366.564Z" fill="#A4E82D"/>
<path d="M53.1587 374.638C55.5541 376.02 57.4916 379.373 57.4838 382.129C57.476 384.885 55.5257 385.996 53.1304 384.613C50.7318 383.229 48.7943 379.873 48.8021 377.117C48.81 374.361 50.7602 373.253 53.1587 374.638Z" fill="#B7C5FD"/>
<path d="M111.187 407.199L78.7563 388.474V400.756L111.187 419.48V407.199Z" fill="#6BB5FB"/>
<path d="M299.999 239.88L299.895 287.638C299.886 291.763 297.175 295.878 291.763 299.021L170.204 369.666C159.308 375.996 141.585 376.001 130.619 369.666L8.26472 299.026C2.74507 295.839 -0.00973341 291.66 2.58385e-05 287.481L0.103193 239.747C0.103193 243.912 130.718 321.908 130.718 321.908C141.688 328.238 159.411 328.238 170.307 321.903C170.307 321.903 299.989 244 299.999 239.88Z" fill="#2E4277"/>
<path d="M119.908 327.15L18.5921 268.652C15.9731 267.14 12.6992 269.03 12.6992 272.054V287.857C12.6992 290.664 14.1968 293.258 16.6278 294.662L117.944 353.155C120.563 354.668 123.837 352.777 123.837 349.753V333.954C123.837 331.147 122.339 328.554 119.908 327.15Z" fill="#384E85"/>
<path d="M291.737 228.334C302.704 234.666 302.762 244.93 291.866 251.262L170.306 321.905C159.41 328.237 141.687 328.239 130.72 321.907L8.36461 251.265C-2.60266 244.933 -2.65731 234.668 8.23867 228.335L129.799 157.693C140.695 151.36 158.414 151.36 169.381 157.692L291.737 228.334Z" fill="#384E85"/>
<path d="M244.194 234.728C249.045 237.529 249.067 242.068 244.248 244.869L159.111 294.345C154.291 297.146 146.455 297.147 141.604 294.347L55.9107 244.871C51.0594 242.07 51.0338 237.53 55.8536 234.729L140.99 185.253C145.81 182.452 153.649 182.452 158.5 185.253L244.194 234.728Z" fill="#2E4277"/>
<path d="M25.1918 282.019C27.5903 283.404 29.5247 286.754 29.5169 289.511C29.5091 292.267 27.562 293.38 25.1635 291.995C22.765 290.61 20.8274 287.254 20.8352 284.498C20.843 281.742 22.7933 280.634 25.1918 282.019Z" fill="#E52C42"/>
<path d="M39.1751 290.093C41.5705 291.476 43.508 294.828 43.5002 297.584C43.4924 300.34 41.5423 301.451 39.1468 300.068C36.7483 298.684 34.8107 295.328 34.8185 292.572C34.8265 289.815 36.7767 288.708 39.1751 290.093Z" fill="#A4E82D"/>
<path d="M53.1587 298.166C55.5541 299.549 57.4916 302.901 57.4838 305.657C57.476 308.413 55.5257 309.525 53.1304 308.142C50.7318 306.757 48.7943 303.401 48.8021 300.645C48.81 297.889 50.7602 296.781 53.1587 298.166Z" fill="#B7C5FD"/>
<path d="M111.187 330.727L78.7563 312.003V324.285L111.187 343.008V330.727Z" fill="#6BB5FB"/>
<path d="M299.999 163.408L299.895 211.166C299.886 215.291 297.175 219.406 291.763 222.549L170.204 293.194C159.308 299.524 141.585 299.529 130.619 293.194L8.26472 222.554C2.74507 219.367 -0.00973341 215.188 2.58385e-05 211.009L0.103193 163.276C0.103193 167.44 130.718 245.436 130.718 245.436C141.688 251.766 159.411 251.766 170.307 245.431C170.307 245.431 299.989 167.528 299.999 163.408Z" fill="#2E4277"/>
<path d="M119.908 250.678L18.5921 192.18C15.9731 190.668 12.6992 192.558 12.6992 195.583V211.385C12.6992 214.193 14.1968 216.786 16.6278 218.19L117.944 276.684C120.563 278.196 123.837 276.306 123.837 273.281V257.483C123.837 254.676 122.339 252.082 119.908 250.678Z" fill="#384E85"/>
<path d="M291.737 151.863C302.704 158.195 302.762 168.458 291.866 174.79L170.306 245.433C159.41 251.765 141.687 251.767 130.72 245.435L8.36461 174.793C-2.60266 168.461 -2.65731 158.196 8.23867 151.864L129.799 81.2208C140.695 74.8887 158.414 74.8887 169.381 81.2206L291.737 151.863Z" fill="#384E85"/>
<path d="M244.194 158.256C249.045 161.057 249.067 165.596 244.248 168.397L159.111 217.873C154.291 220.674 146.455 220.676 141.604 217.875L55.9107 168.4C51.0594 165.599 51.0338 161.058 55.8536 158.257L140.99 108.781C145.81 105.98 153.649 105.98 158.5 108.781L244.194 158.256Z" fill="#2E4277"/>
<path d="M25.1918 205.547C27.5903 206.932 29.5247 210.283 29.5169 213.039C29.5091 215.795 27.562 216.908 25.1635 215.523C22.765 214.139 20.8274 210.783 20.8352 208.027C20.843 205.27 22.7933 204.163 25.1918 205.547Z" fill="#E52C42"/>
<path d="M39.1751 213.621C41.5705 215.004 43.508 218.356 43.5002 221.112C43.4924 223.868 41.5423 224.98 39.1468 223.597C36.7483 222.212 34.8107 218.856 34.8185 216.1C34.8265 213.344 36.7767 212.236 39.1751 213.621Z" fill="#A4E82D"/>
<path d="M53.1587 221.694C55.5541 223.077 57.4916 226.43 57.4838 229.186C57.476 231.942 55.5257 233.053 53.1304 231.67C50.7318 230.285 48.7943 226.929 48.8021 224.173C48.81 221.417 50.7602 220.309 53.1587 221.694Z" fill="#B7C5FD"/>
<path d="M111.187 254.255L78.7563 235.531V247.813L111.187 266.537V254.255Z" fill="#6BB5FB"/>
<path d="M299.999 86.9364L299.895 134.694C299.886 138.819 297.175 142.934 291.763 146.077L170.204 216.722C159.308 223.052 141.585 223.057 130.619 216.722L8.26472 146.082C2.74507 142.895 -0.00973341 138.716 2.58385e-05 134.537L0.103193 86.8039C0.103193 90.9681 130.718 168.965 130.718 168.965C141.688 175.294 159.411 175.294 170.307 168.96C170.307 168.96 299.989 91.0565 299.999 86.9364Z" fill="#2E4277"/>
<path d="M119.908 174.207L18.5921 115.709C15.9731 114.197 12.6992 116.087 12.6992 119.111V134.914C12.6992 137.721 14.1968 140.315 16.6278 141.718L117.944 200.212C120.563 201.724 123.837 199.834 123.837 196.81V181.011C123.837 178.204 122.339 175.61 119.908 174.207Z" fill="#384E85"/>
<path d="M291.737 75.3909C302.704 81.7229 302.762 91.9865 291.866 98.3186L170.306 168.962C159.41 175.294 141.687 175.296 130.72 168.964L8.36461 98.3217C-2.60266 91.9897 -2.65731 81.7242 8.23867 75.3921L129.799 4.74912C140.695 -1.58296 158.414 -1.58306 169.381 4.74893L291.737 75.3909Z" fill="#384E85"/>
<path d="M244.194 81.7845C249.045 84.5854 249.067 89.1243 244.248 91.9253L159.111 141.401C154.291 144.202 146.455 144.204 141.604 141.403L55.9107 91.928C51.0594 89.1271 51.0338 84.5862 55.8536 81.7853L140.99 32.3094C145.81 29.5085 153.649 29.5084 158.5 32.3093L244.194 81.7845Z" fill="#2E4277"/>
<path d="M25.1918 129.076C27.5903 130.461 29.5247 133.811 29.5169 136.567C29.5091 139.323 27.562 140.436 25.1635 139.052C22.765 137.667 20.8274 134.311 20.8352 131.555C20.843 128.799 22.7933 127.691 25.1918 129.076Z" fill="#E52C42"/>
<path d="M39.1751 137.149C41.5705 138.532 43.508 141.884 43.5002 144.64C43.4924 147.397 41.5423 148.508 39.1468 147.125C36.7483 145.74 34.8107 142.384 34.8185 139.628C34.8265 136.872 36.7767 135.764 39.1751 137.149Z" fill="#A4E82D"/>
<path d="M53.1587 145.222C55.5541 146.605 57.4916 149.958 57.4838 152.714C57.476 155.47 55.5257 156.581 53.1304 155.198C50.7318 153.813 48.7943 150.457 48.8021 147.701C48.81 144.945 50.7602 143.838 53.1587 145.222Z" fill="#B7C5FD"/>
<path d="M111.187 177.784L78.7563 159.059V171.341L111.187 190.065V177.784Z" fill="#6BB5FB"/>
</svg>
