<svg width="69" height="70" viewBox="0 0 69 70" fill="none" xmlns="http://www.w3.org/2000/svg">
<g filter="url(#filter0_d_70_118)">
<path d="M58.0829 24.9958L54.5774 30.3917C56.268 33.8423 57.0956 37.6683 56.9862 41.5267C56.8768 45.3851 55.8337 49.1555 53.9505 52.5H14.4495C12.0018 48.1545 10.9876 43.1174 11.5571 38.1356C12.1267 33.1538 14.2497 28.4924 17.6115 24.8425C20.9733 21.1926 25.3948 18.7485 30.2206 17.8725C35.0465 16.9964 40.0197 17.7352 44.403 19.9792L49.6755 16.3917C44.3074 12.869 37.9401 11.2904 31.5919 11.9086C25.2437 12.5267 19.2815 15.3058 14.6589 19.8013C10.0364 24.2968 7.02058 30.249 6.09392 36.7057C5.16726 43.1625 6.38328 49.7507 9.54749 55.4167C10.0448 56.2983 10.759 57.0314 11.619 57.5431C12.4789 58.0548 13.4548 58.3272 14.4495 58.3333H53.922C54.9263 58.3374 55.914 58.0698 56.7848 57.5576C57.6556 57.0454 58.3788 56.3069 58.8809 55.4167C61.5069 50.7614 62.8247 45.4541 62.6889 40.0807C62.5531 34.7073 60.969 29.4768 58.1114 24.9667L58.0829 24.9958ZM30.1815 44.9458C30.7109 45.4882 31.3395 45.9185 32.0315 46.212C32.7234 46.5056 33.4652 46.6567 34.2142 46.6567C34.9633 46.6567 35.705 46.5056 36.397 46.212C37.0889 45.9185 37.7176 45.4882 38.247 44.9458L54.378 20.1833L30.1815 36.6917C29.6515 37.2334 29.2311 37.8768 28.9442 38.5849C28.6574 39.2931 28.5097 40.0522 28.5097 40.8188C28.5097 41.5853 28.6574 42.3444 28.9442 43.0526C29.2311 43.7607 29.6515 44.4041 30.1815 44.9458Z" fill="#007FFF"/>
</g>
<defs>
<filter id="filter0_d_70_118" x="1.79135" y="7.7774" width="64.9071" height="54.556" filterUnits="userSpaceOnUse" color-interpolation-filters="sRGB">
<feFlood flood-opacity="0" result="BackgroundImageFix"/>
<feColorMatrix in="SourceAlpha" type="matrix" values="0 0 0 0 0 0 0 0 0 0 0 0 0 0 0 0 0 0 127 0" result="hardAlpha"/>
<feOffset/>
<feGaussianBlur stdDeviation="2"/>
<feComposite in2="hardAlpha" operator="out"/>
<feColorMatrix type="matrix" values="0 0 0 0 0 0 0 0 0 0.498039 0 0 0 0 1 0 0 0 1 0"/>
<feBlend mode="normal" in2="BackgroundImageFix" result="effect1_dropShadow_70_118"/>
<feBlend mode="normal" in="SourceGraphic" in2="effect1_dropShadow_70_118" result="shape"/>
</filter>
</defs>
</svg>
